<svg xmlns="http://www.w3.org/2000/svg" xmlns:xlink="http://www.w3.org/1999/xlink" width="1280" height="800" viewBox="0 0 1280 800">
  <defs>
    <path id="path-11" fill-rule="evenodd" d="M596 810h118c4.4153202 0 8 3.5846798 8 8v65c0 4.4153202-3.5846798 8-8 8H596c-4.4153202 0-8-3.5846798-8-8v-65c0-4.4153202 3.5846798-8 8-8z"/>
    <filter id="filter-12" width="200%" height="200%" x="-50%" y="-50%" color-interpolation-filters="sRGB" filterUnits="userSpaceOnUse">
      <feOffset dx="0" dy="2" in="SourceAlpha" result="shadow-1-feOffset-shadow"/>
      <feGaussianBlur in="shadow-1-feOffset-shadow" result="shadow-1-feGaussianBlur-shadow" stdDeviation="2.41"/>
      <feColorMatrix in="shadow-1-feGaussianBlur-shadow" result="shadow-1-feColorMatrix-shadow" type="matrix" values="0 0 0 0 0  0 0 0 0 0  0 0 0 0 0  0 0 0 0.5 0"/>
    </filter>
    <rect id="rect-16" width="1054" height="59" x="128" y="472"/>
    <filter id="filter-17" width="200%" height="200%" x="-50%" y="-50%" color-interpolation-filters="sRGB" filterUnits="userSpaceOnUse">
      <feOffset dx="0" dy="2" in="SourceAlpha" result="shadow-1-feOffset-shadow"/>
      <feGaussianBlur in="shadow-1-feOffset-shadow" result="shadow-1-feGaussianBlur-shadow" stdDeviation="2.41"/>
      <feColorMatrix in="shadow-1-feGaussianBlur-shadow" result="shadow-1-feColorMatrix-shadow" type="matrix" values="0 0 0 0 0  0 0 0 0 0  0 0 0 0 0  0 0 0 0.5 0"/>
    </filter>
    <rect id="rect-18" width="602" height="190" x="339" y="42"/>
    <filter id="filter-19" width="200%" height="200%" x="-50%" y="-50%" color-interpolation-filters="sRGB" filterUnits="userSpaceOnUse">
      <feOffset dx="0" dy="2" in="SourceAlpha" result="shadow-1-feOffset-shadow"/>
      <feGaussianBlur in="shadow-1-feOffset-shadow" result="shadow-1-feGaussianBlur-shadow" stdDeviation="2.41"/>
      <feColorMatrix in="shadow-1-feGaussianBlur-shadow" result="shadow-1-feColorMatrix-shadow" type="matrix" values="0 0 0 0 0  0 0 0 0 0  0 0 0 0 0  0 0 0 0.5 0"/>
    </filter>
  </defs>
  <ellipse cx="915" cy="812" fill="rgb(63,170,37)" rx="435" ry="163"/>
  <ellipse cx="368" cy="822" fill="rgb(63,170,37)" rx="435" ry="163"/>
  <rect width="12" height="51" x="171" y="635" fill="rgb(174,94,51)"/>
  <rect width="12" height="51" x="1110" y="635" fill="rgb(196,98,45)"/>
  <rect width="18" height="103" x="66" y="608" fill="rgb(147,72,31)"/>
  <rect width="18" height="103" x="1192" y="608" fill="rgb(147,72,31)"/>
  <ellipse cx="75" cy="547.5" fill="rgb(39,106,30)" rx="55" ry="81.5"/>
  <ellipse cx="1116.5" cy="608.5" fill="rgb(10,51,5)" rx="24.5" ry="40.5"/>
  <ellipse cx="177.5" cy="608.5" fill="rgb(10,51,5)" rx="24.5" ry="40.5"/>
  <ellipse cx="1201" cy="530.5" fill="rgb(39,106,30)" rx="55" ry="81.5"/>
  <g>
    <use fill="black" stroke="black" stroke-opacity="0" stroke-width="0" filter="url(#filter-12)" xlink:href="#path-11"/>
    <use fill="rgb(63,170,37)" xlink:href="#path-11"/>
  </g>
  <text font-size="0" style="white-space:pre">
    <tspan x="617" y="860" fill="rgb(255,255,255)" font-family="Alba Matter" font-size="35" font-weight="400" style="white-space:pre;text-transform:none" letter-spacing="3">Back</tspan>
  </text>
  <path fill="rgb(255,255,255)" fill-rule="evenodd" d="M22.5 13h36c3.58744766 0 6.5 2.91255234 6.5 6.5S62.08744766 26 58.5 26h-36c-3.58744766 0-6.5-2.91255234-6.5-6.5s2.91255234-6.5 6.5-6.5z"/>
  <path fill="rgb(255,255,255)" fill-rule="evenodd" d="M22.5 58h36c3.58744766 0 6.5 2.91255234 6.5 6.5S62.08744766 71 58.5 71h-36c-3.58744766 0-6.5-2.91255234-6.5-6.5s2.91255234-6.5 6.5-6.5z"/>
  <path fill="rgb(255,255,255)" fill-rule="evenodd" d="M22.5 35h36c3.58744766 0 6.5 2.91255234 6.5 6.5S62.08744766 48 58.5 48h-36c-3.58744766 0-6.5-2.91255234-6.5-6.5s2.91255234-6.5 6.5-6.5z"/>
  <g>
    <use fill="black" stroke="black" stroke-opacity="0" stroke-width="0" filter="url(#filter-17)" xlink:href="#rect-16"/>
    <use fill="rgb(159,92,22)" xlink:href="#rect-16"/>
  </g>
  <g>
    <g>
      <use fill="black" stroke="black" stroke-opacity="0" stroke-width="0" filter="url(#filter-19)" xlink:href="#rect-18"/>
      <use fill="rgb(63,170,37)" xlink:href="#rect-18"/>
    </g>
    <text font-size="0" style="white-space:pre">
      <tspan x="473.137" y="158" fill="rgb(255,255,255)" font-family="Arial" font-size="60" font-weight="700" style="white-space:pre;text-transform:none" letter-spacing="3.429">My Medals</tspan>
    </text>
  </g>
</svg>
